{"glyphs":{"0":{"ha":794,"x_min":70,"x_max":724,"o":"m 724 497 l 724 497 q 705 281 724 376 q 648 121 687 186 q 546 21 608 55 q 396 -14 484 -14 l 396 -14 q 213 47 286 -14 q 105 221 141 107 q 70 497 70 336 l 70 497 q 102 770 70 656 q 206 946 134 884 q 396 1007 278 1007 l 396 1007 q 581 946 508 1007 q 688 771 653 886 q 724 497 724 657 z m 183 497 l 183 497 q 204 267 183 359 q 272 129 225 174 q 396 83 319 83 l 396 83 q 520 128 473 83 q 588 266 567 174 q 610 497 610 358 l 610 497 q 589 725 610 633 q 521 864 568 817 q 396 910 474 910 l 396 910 q 271 864 318 910 q 204 725 224 817 q 183 497 183 633 z"},"1":{"ha":794,"x_min":125,"x_max":488,"o":"m 488 991 l 488 0 l 378 0 l 378 703 q 378 771 378 743 q 379 824 378 800 q 382 873 380 848 l 382 873 q 343 837 361 852 q 298 799 325 821 l 298 799 l 184 708 l 125 785 l 394 991 l 488 991 z"},"2":{"ha":794,"x_min":68,"x_max":718,"o":"m 718 103 l 718 0 l 68 0 l 68 94 l 334 363 q 458 496 408 438 q 535 611 509 555 q 562 736 562 668 l 562 736 q 512 864 562 820 q 380 909 462 909 l 380 909 q 254 884 309 909 q 142 815 199 860 l 142 815 l 81 891 q 167 950 121 924 q 267 991 214 976 q 380 1006 320 1006 l 380 1006 q 538 974 472 1006 q 641 883 605 942 q 677 743 677 824 l 677 743 q 646 596 677 664 q 559 463 615 529 q 427 323 503 397 l 427 323 l 212 108 l 212 103 l 718 103 z"},"3":{"ha":794,"x_min":62,"x_max":712,"o":"m 682 760 l 682 760 q 656 645 682 694 q 584 565 630 596 q 475 522 538 534 l 475 522 l 475 517 q 653 441 593 502 q 712 281 712 380 l 712 281 q 672 128 712 195 q 548 24 631 62 q 336 -14 465 -14 l 336 -14 q 190 -1 257 -14 q 62 41 123 12 l 62 41 l 62 146 q 197 99 124 116 q 337 81 269 81 l 337 81 q 533 135 473 81 q 593 283 593 189 l 593 283 q 560 387 593 347 q 464 445 526 427 q 313 464 401 464 l 313 464 l 214 464 l 214 560 l 313 560 q 450 584 394 560 q 536 651 507 608 q 566 753 566 694 l 566 753 q 515 869 566 828 q 379 910 465 910 l 379 910 q 283 899 326 910 q 201 869 239 888 q 125 825 163 850 l 125 825 l 68 903 q 201 975 123 945 q 378 1006 279 1006 l 378 1006 q 606 937 530 1006 q 682 760 682 867 z"},"4":{"ha":794,"x_min":30,"x_max":768,"o":"m 768 332 l 768 230 l 619 230 l 619 0 l 509 0 l 509 230 l 30 230 l 30 325 l 502 997 l 619 997 l 619 332 l 768 332 z m 142 332 l 509 332 l 509 656 q 510 723 509 693 q 512 780 511 753 q 514 829 513 806 q 516 876 515 853 l 516 876 l 511 876 q 481 819 498 849 q 448 765 465 789 l 448 765 l 142 332 z"},"5":{"ha":794,"x_min":90,"x_max":714,"o":"m 382 606 l 382 606 q 557 572 483 606 q 673 473 632 538 q 714 315 714 408 l 714 315 q 670 139 714 213 q 543 26 626 66 q 345 -14 460 -14 l 345 -14 q 201 0 268 -14 q 90 41 135 14 l 90 41 l 90 148 q 210 100 139 118 q 347 83 280 83 l 347 83 q 478 107 422 83 q 567 180 535 131 q 598 304 598 229 l 598 304 q 537 457 598 403 q 346 511 477 511 l 346 511 q 254 504 304 511 q 171 489 203 497 l 171 489 l 114 526 l 152 991 l 645 991 l 645 888 l 248 888 l 223 589 q 290 601 249 595 q 382 606 330 606 z"},"6":{"ha":794,"x_min":79,"x_max":727,"o":"m 79 424 l 79 424 q 91 599 79 513 q 134 758 104 684 q 215 887 163 831 q 343 974 267 943 q 528 1006 420 1006 l 528 1006 q 594 1003 559 1006 q 652 993 629 1000 l 652 993 l 652 896 q 595 909 627 905 q 530 913 563 913 l 530 913 q 332 858 404 913 q 228 709 260 803 q 191 498 196 615 l 191 498 l 199 498 q 252 559 220 532 q 331 603 285 587 q 439 619 378 619 l 439 619 q 591 584 526 619 q 691 481 656 549 q 727 319 727 414 l 727 319 q 689 142 727 216 q 581 27 651 67 q 414 -14 511 -14 l 414 -14 q 280 14 341 -14 q 174 97 219 42 q 104 234 129 152 q 79 424 79 315 z m 412 81 l 412 81 q 560 140 505 81 q 616 319 616 199 l 616 319 q 566 473 616 416 q 417 530 517 530 l 417 530 q 299 502 349 530 q 221 431 249 474 q 193 345 193 389 l 193 345 q 207 254 193 300 q 247 168 220 208 q 315 105 274 129 q 412 81 357 81 z"},"7":{"ha":794,"x_min":63,"x_max":724,"o":"m 320 0 l 197 0 l 604 888 l 63 888 l 63 991 l 724 991 l 724 905 l 320 0 z"},"8":{"ha":794,"x_min":70,"x_max":722,"o":"m 396 1006 l 396 1006 q 549 979 482 1006 q 653 899 615 951 q 690 770 690 846 l 690 770 q 664 664 690 709 q 594 586 638 619 q 496 526 550 552 l 496 526 q 611 460 560 496 q 692 374 663 423 q 722 256 722 324 l 722 256 q 682 112 722 173 q 569 19 642 52 q 399 -14 496 -14 l 399 -14 q 220 18 294 -14 q 108 109 146 50 q 70 252 70 168 l 70 252 q 99 371 70 320 q 176 458 128 421 q 281 519 224 494 l 281 519 q 191 581 232 547 q 126 662 150 616 q 102 770 102 709 l 102 770 q 140 898 102 846 q 245 978 178 951 q 396 1006 312 1006 z m 180 251 l 180 251 q 234 126 180 175 q 396 77 288 77 l 396 77 q 555 126 499 77 q 612 255 612 175 l 612 255 q 586 342 612 304 q 513 410 560 380 q 401 464 465 439 l 401 464 l 376 473 q 270 415 314 447 q 203 344 227 384 q 180 251 180 304 z m 395 913 l 395 913 q 264 875 315 913 q 213 765 213 837 l 213 765 q 238 678 213 713 q 305 617 262 642 q 401 570 348 591 l 401 570 q 492 617 452 591 q 555 680 532 644 q 578 766 578 715 l 578 766 q 528 876 578 838 q 395 913 477 913 z"},"9":{"ha":794,"x_min":70,"x_max":720,"o":"m 720 569 l 720 569 q 707 393 720 479 q 664 234 694 308 q 583 104 634 160 q 453 17 531 49 q 268 -14 376 -14 l 268 -14 q 201 -11 239 -14 q 140 0 164 -7 l 140 0 l 140 98 q 199 84 165 89 q 266 79 233 79 l 266 79 q 465 133 393 79 q 570 282 538 188 q 606 493 602 376 l 606 493 l 597 493 q 544 433 577 460 q 465 389 511 406 q 355 372 418 372 l 355 372 q 205 408 269 372 q 105 510 141 443 q 70 672 70 577 l 70 672 q 109 849 70 774 q 218 965 148 924 q 385 1006 289 1006 l 385 1006 q 519 978 458 1006 q 625 895 580 950 q 695 758 670 840 q 720 569 720 677 z m 385 910 l 385 910 q 238 851 294 910 q 182 673 182 792 l 182 673 q 231 518 182 575 q 379 461 279 461 l 379 461 q 499 489 448 461 q 577 559 549 517 q 604 647 604 602 l 604 647 q 591 738 604 692 q 551 823 578 784 q 482 886 524 862 q 385 910 441 910 z"},"A":{"ha":878,"x_min":0,"x_max":877,"o":"m 877 0 l 758 0 l 635 315 l 238 315 l 117 0 l 0 0 l 388 996 l 492 996 l 877 0 z m 277 417 l 601 417 l 485 730 q 472 770 481 742 q 453 827 463 798 q 437 876 444 857 l 437 876 q 423 820 431 848 q 408 769 415 793 q 395 730 400 746 l 395 730 l 277 417 z"},"B":{"ha":897,"x_min":136,"x_max":822,"o":"m 136 0 l 136 991 l 416 991 q 696 936 602 991 q 789 747 789 880 l 789 747 q 767 643 789 689 q 703 568 745 597 q 600 526 661 538 l 600 526 l 600 519 q 715 482 665 509 q 793 406 765 455 q 822 282 822 357 l 822 282 q 780 127 822 191 q 660 32 737 64 q 477 0 583 0 l 477 0 l 136 0 z m 251 893 l 251 566 l 441 566 q 620 609 570 566 q 670 734 670 652 l 670 734 q 611 856 670 819 q 422 893 551 893 l 422 893 l 251 893 z m 447 469 l 251 469 l 251 98 l 457 98 q 644 150 589 98 q 699 290 699 202 l 699 290 q 674 387 699 347 q 594 448 650 427 q 447 469 539 469 l 447 469 z"},"C":{"ha":875,"x_min":85,"x_max":832,"o":"m 559 904 l 559 904 q 412 876 477 904 q 301 794 347 848 q 231 666 255 741 q 206 496 206 591 l 206 496 q 245 280 206 372 q 362 138 284 188 q 556 87 439 87 l 556 87 q 681 99 623 87 q 795 127 740 110 l 795 127 l 795 26 q 682 -4 741 6 q 540 -14 622 -14 l 540 -14 q 287 49 389 -14 q 135 227 186 112 q 85 497 85 341 l 85 497 q 116 703 85 610 q 209 864 148 796 q 358 969 269 932 q 561 1006 446 1006 l 561 1006 q 706 991 636 1006 q 832 948 776 976 l 832 948 l 786 850 q 682 888 739 872 q 559 904 625 904 z"},"D":{"ha":1008,"x_min":136,"x_max":923,"o":"m 923 505 l 923 505 q 862 225 923 338 q 685 57 801 113 q 405 0 570 0 l 405 0 l 136 0 l 136 991 l 435 991 q 695 936 586 991 q 864 773 804 881 q 923 505 923 665 z m 802 501 l 802 501 q 757 722 802 635 q 627 851 713 808 q 417 893 541 893 l 417 893 l 251 893 l 251 99 l 391 99 q 699 200 596 99 q 802 501 802 301 z"},"E":{"ha":772,"x_min":136,"x_max":688,"o":"m 688 102 l 688 0 l 136 0 l 136 991 l 688 991 l 688 890 l 251 890 l 251 569 l 663 569 l 663 469 l 251 469 l 251 102 l 688 102 z"},"F":{"ha":717,"x_min":136,"x_max":688,"o":"m 251 425 l 251 0 l 136 0 l 136 991 l 688 991 l 688 890 l 251 890 l 251 526 l 661 526 l 661 425 l 251 425 z"},"G":{"ha":1010,"x_min":85,"x_max":906,"o":"m 559 416 l 559 519 l 906 519 l 906 39 q 746 -1 828 12 q 562 -14 663 -14 l 562 -14 q 301 48 407 -14 q 140 224 195 110 q 85 496 85 338 l 85 496 q 145 764 85 650 q 321 942 206 879 q 597 1006 436 1006 l 597 1006 q 754 990 680 1006 q 892 947 829 975 l 892 947 l 848 847 q 727 888 793 871 q 591 905 661 905 l 591 905 q 383 854 469 905 q 251 713 296 804 q 205 496 205 621 l 205 496 q 245 280 205 372 q 370 137 285 188 q 588 86 454 86 l 588 86 q 703 94 655 86 q 791 113 751 102 l 791 113 l 791 416 l 559 416 z"},"H":{"ha":1024,"x_min":136,"x_max":887,"o":"m 887 991 l 887 0 l 772 0 l 772 467 l 251 467 l 251 0 l 136 0 l 136 991 l 251 991 l 251 569 l 772 569 l 772 991 l 887 991 z"},"I":{"ha":388,"x_min":136,"x_max":251,"o":"m 251 0 l 136 0 l 136 991 l 251 991 l 251 0 z"},"J":{"ha":373,"x_min":-111,"x_max":245,"o":"m -7 -261 l -7 -261 q -67 -256 -41 -261 q -111 -243 -93 -252 l -111 -243 l -111 -145 q -64 -156 -90 -152 q -10 -159 -39 -159 l -10 -159 q 60 -144 28 -159 q 111 -94 92 -130 q 130 5 130 -58 l 130 5 l 130 991 l 245 991 l 245 14 q 215 -140 245 -79 q 127 -231 184 -201 q -7 -261 71 -261 z"},"K":{"ha":850,"x_min":136,"x_max":850,"o":"m 441 562 l 850 0 l 714 0 l 357 482 l 251 387 l 251 0 l 136 0 l 136 991 l 251 991 l 251 497 q 330 585 290 541 q 411 673 371 629 l 411 673 l 701 991 l 836 991 l 441 562 z"},"L":{"ha":725,"x_min":136,"x_max":691,"o":"m 691 0 l 136 0 l 136 991 l 251 991 l 251 103 l 691 103 l 691 0 z"},"M":{"ha":1249,"x_min":136,"x_max":1114,"o":"m 666 0 l 572 0 l 239 878 l 233 878 q 238 810 236 850 q 241 723 240 770 q 243 627 243 675 l 243 627 l 243 0 l 136 0 l 136 991 l 307 991 l 621 167 l 625 167 l 944 991 l 1114 991 l 1114 0 l 1000 0 l 1000 635 q 1001 723 1000 679 q 1004 807 1002 768 q 1008 876 1006 847 l 1008 876 l 1003 876 l 666 0 z"},"N":{"ha":1046,"x_min":136,"x_max":911,"o":"m 911 991 l 911 0 l 778 0 l 237 833 l 232 833 q 237 757 234 800 q 241 667 239 715 q 243 570 243 619 l 243 570 l 243 0 l 136 0 l 136 991 l 268 991 l 806 161 l 811 161 q 808 229 810 185 q 804 323 806 273 q 802 417 802 374 l 802 417 l 802 991 l 911 991 z"},"O":{"ha":1080,"x_min":85,"x_max":996,"o":"m 996 497 l 996 497 q 966 289 996 382 q 880 127 937 195 q 738 23 823 60 q 541 -14 653 -14 l 541 -14 q 340 23 426 -14 q 198 127 254 60 q 113 290 141 195 q 85 498 85 384 l 85 498 q 135 765 85 650 q 287 943 185 880 q 543 1007 389 1007 l 543 1007 q 791 944 690 1007 q 944 767 892 881 q 996 497 996 652 z m 206 497 l 206 497 q 242 279 206 371 q 352 136 278 186 q 541 86 427 86 l 541 86 q 730 136 656 86 q 839 279 804 186 q 874 497 874 371 l 874 497 q 794 797 874 689 q 543 905 713 905 l 543 905 q 353 856 428 905 q 242 715 279 806 q 206 497 206 624 z"},"P":{"ha":836,"x_min":136,"x_max":764,"o":"m 136 991 l 395 991 q 675 917 587 991 q 764 702 764 842 l 764 702 q 743 582 764 639 q 676 483 722 526 q 555 415 630 439 q 372 390 480 390 l 372 390 l 251 390 l 251 0 l 136 0 l 136 991 z m 384 893 l 384 893 l 251 893 l 251 489 l 359 489 q 517 509 454 489 q 612 575 581 530 q 644 697 644 621 l 644 697 q 581 845 644 796 q 384 893 518 893 z"},"Q":{"ha":1080,"x_min":85,"x_max":996,"o":"m 996 497 l 996 497 q 962 276 996 375 q 864 109 929 177 q 701 9 798 40 l 701 9 l 934 -236 l 769 -236 l 577 -12 q 559 -13 568 -12 q 541 -14 550 -14 l 541 -14 q 340 23 426 -14 q 198 127 254 60 q 113 290 141 195 q 85 498 85 384 l 85 498 q 135 765 85 650 q 287 943 185 880 q 543 1007 389 1007 l 543 1007 q 791 944 690 1007 q 944 767 892 881 q 996 497 996 652 z m 206 497 l 206 497 q 242 279 206 371 q 352 136 278 186 q 541 86 427 86 l 541 86 q 730 136 656 86 q 839 279 804 186 q 874 497 874 371 l 874 497 q 794 797 874 689 q 543 905 713 905 l 543 905 q 353 856 428 905 q 242 715 279 806 q 206 497 206 624 z"},"R":{"ha":857,"x_min":136,"x_max":834,"o":"m 136 991 l 404 991 q 605 961 526 991 q 724 869 685 931 q 764 712 764 808 l 764 712 q 735 581 764 633 q 661 496 707 528 q 562 446 614 463 l 562 446 l 834 0 l 700 0 l 457 414 l 251 414 l 251 0 l 136 0 l 136 991 z m 397 892 l 397 892 l 251 892 l 251 511 l 408 511 q 587 561 530 511 q 644 707 644 610 l 644 707 q 584 850 644 808 q 397 892 523 892 z"},"S":{"ha":762,"x_min":71,"x_max":695,"o":"m 695 264 l 695 264 q 651 114 695 176 q 529 19 608 52 q 344 -14 450 -14 l 344 -14 q 237 -8 288 -14 q 145 7 187 -3 q 71 33 103 18 l 71 33 l 71 143 q 195 104 122 122 q 349 86 269 86 l 349 86 q 475 106 423 86 q 553 164 526 126 q 580 254 580 201 l 580 254 q 557 339 580 305 q 483 402 535 374 q 342 462 431 430 l 342 462 q 231 511 279 484 q 150 572 182 538 q 101 650 117 606 q 84 753 84 695 l 84 753 q 124 889 84 832 q 236 976 165 945 q 401 1006 308 1006 l 401 1006 q 548 991 480 1006 q 671 951 615 976 l 671 951 l 635 852 q 522 889 582 874 q 398 904 462 904 l 398 904 q 291 885 334 904 q 224 833 247 867 q 201 752 201 799 l 201 752 q 223 665 201 700 q 293 604 245 631 q 422 548 342 577 l 422 548 q 570 480 509 516 q 663 394 631 445 q 695 264 695 342 z"},"T":{"ha":765,"x_min":12,"x_max":751,"o":"m 440 890 l 440 0 l 324 0 l 324 890 l 12 890 l 12 991 l 751 991 l 751 890 l 440 890 z"},"U":{"ha":1013,"x_min":125,"x_max":886,"o":"m 771 991 l 886 991 l 886 350 q 843 163 886 245 q 715 34 801 81 q 501 -14 630 -14 l 501 -14 q 221 86 317 -14 q 125 353 125 186 l 125 353 l 125 991 l 241 991 l 241 349 q 308 155 241 223 q 508 86 375 86 l 508 86 q 657 119 599 86 q 743 211 715 152 q 771 349 771 271 l 771 349 l 771 991 z"},"V":{"ha":828,"x_min":0,"x_max":828,"o":"m 706 991 l 828 991 l 472 0 l 356 0 l 0 991 l 121 991 l 353 338 q 378 263 367 299 q 398 194 389 227 q 414 130 407 161 l 414 130 q 429 194 420 161 q 450 264 438 228 q 475 340 461 300 l 475 340 l 706 991 z"},"W":{"ha":1282,"x_min":20,"x_max":1262,"o":"m 1141 991 l 1262 991 l 997 0 l 881 0 l 684 667 q 668 725 675 696 q 653 780 660 753 q 642 826 646 806 q 635 856 637 846 l 635 856 q 630 826 634 846 q 621 781 627 806 q 607 726 615 755 q 591 667 600 696 l 591 667 l 399 0 l 283 0 l 20 991 l 140 991 l 300 370 q 315 308 308 338 q 328 250 322 278 q 338 194 334 221 q 347 141 343 167 l 347 141 q 356 196 351 168 q 368 255 361 225 q 382 315 374 285 q 399 376 390 346 l 399 376 l 577 991 l 696 991 l 882 372 q 899 309 891 340 q 914 248 907 277 q 925 192 920 218 q 935 141 930 165 l 935 141 q 946 211 939 174 q 962 288 953 248 q 982 370 971 328 l 982 370 l 1141 991 z"},"X":{"ha":802,"x_min":4,"x_max":798,"o":"m 467 519 l 798 0 l 667 0 l 399 437 l 127 0 l 4 0 l 334 517 l 27 991 l 155 991 l 403 596 l 652 991 l 774 991 l 467 519 z"},"Y":{"ha":777,"x_min":0,"x_max":777,"o":"m 126 991 l 389 494 l 652 991 l 777 991 l 446 385 l 446 0 l 331 0 l 331 379 l 0 991 l 126 991 z"},"Z":{"ha":795,"x_min":53,"x_max":741,"o":"m 741 103 l 741 0 l 53 0 l 53 87 l 587 888 l 71 888 l 71 991 l 727 991 l 727 905 l 193 103 l 741 103 z"},"a":{"ha":772,"x_min":64,"x_max":659,"o":"m 397 755 l 397 755 q 594 696 530 755 q 659 505 659 636 l 659 505 l 659 0 l 576 0 l 555 110 l 549 110 q 484 42 518 69 q 406 0 450 14 q 297 -14 361 -14 l 297 -14 q 177 10 229 -14 q 94 82 124 34 q 64 204 64 130 l 64 204 q 152 375 64 315 q 420 440 240 435 l 420 440 l 549 446 l 549 491 q 507 626 549 587 q 391 665 466 665 l 391 665 q 279 648 332 665 q 179 608 227 631 l 179 608 l 144 693 q 260 737 195 719 q 397 755 325 755 z m 547 298 l 547 366 l 434 361 q 238 316 295 356 q 181 203 181 276 l 181 203 q 220 109 181 139 q 322 78 258 78 l 322 78 q 484 133 421 78 q 547 298 547 188 l 547 298 z"},"b":{"ha":850,"x_min":119,"x_max":772,"o":"m 119 1055 l 231 1055 l 231 791 q 229 703 231 746 q 225 637 227 661 l 225 637 l 231 637 q 319 722 262 687 q 467 756 377 756 l 467 756 q 689 660 606 756 q 772 372 772 563 l 772 372 q 734 161 772 247 q 627 31 696 75 q 464 -14 558 -14 l 464 -14 q 319 19 376 -14 q 232 100 262 52 l 232 100 l 223 100 l 200 0 l 119 0 l 119 1055 z m 448 662 l 448 662 q 320 630 368 662 q 252 535 273 599 q 231 375 231 472 l 231 375 l 231 369 q 278 154 231 229 q 448 80 325 80 l 448 80 q 604 156 552 80 q 656 373 656 232 l 656 373 q 605 589 656 517 q 448 662 553 662 z"},"c":{"ha":665,"x_min":77,"x_max":620,"o":"m 416 -14 l 416 -14 q 239 28 316 -14 q 120 154 163 69 q 77 368 77 239 l 77 368 q 122 588 77 503 q 247 715 168 674 q 427 757 326 757 l 427 757 q 535 746 483 757 q 620 718 587 734 l 620 718 l 586 623 q 508 648 552 637 q 425 659 463 659 l 425 659 q 296 625 347 659 q 219 528 245 592 q 194 369 194 463 l 194 369 q 219 215 194 279 q 293 118 243 151 q 416 84 342 84 l 416 84 q 522 97 475 84 q 608 126 570 109 l 608 126 l 608 26 q 525 -3 571 7 q 416 -14 479 -14 z"},"d":{"ha":850,"x_min":77,"x_max":730,"o":"m 383 -14 l 383 -14 q 160 83 242 -14 q 77 369 77 179 l 77 369 q 161 659 77 561 q 385 757 245 757 l 385 757 q 488 741 444 757 q 564 700 532 726 q 618 640 596 673 l 618 640 l 626 640 q 621 698 623 661 q 618 758 618 734 l 618 758 l 618 1055 l 730 1055 l 730 0 l 640 0 l 623 106 l 618 106 q 565 45 597 73 q 488 2 532 18 q 383 -14 444 -14 z m 401 80 l 401 80 q 570 148 520 80 q 619 349 619 216 l 619 349 l 619 370 q 572 587 619 511 q 401 663 525 663 l 401 663 q 245 584 297 663 q 194 366 194 504 l 194 366 q 245 155 194 229 q 401 80 296 80 z"},"e":{"ha":780,"x_min":77,"x_max":707,"o":"m 405 757 l 405 757 q 568 715 500 757 q 671 597 635 673 q 707 420 707 522 l 707 420 l 707 351 l 194 351 q 259 151 196 220 q 437 83 322 83 l 437 83 q 562 96 507 83 q 674 134 616 109 l 674 134 l 674 35 q 563 -2 618 9 q 432 -14 507 -14 l 432 -14 q 245 30 325 -14 q 121 159 165 74 q 77 366 77 243 l 77 366 q 118 574 77 486 q 232 709 158 662 q 405 757 305 757 z m 404 665 l 404 665 q 260 606 313 665 q 196 441 206 547 l 196 441 l 589 441 q 569 558 589 507 q 508 636 549 608 q 404 665 467 665 z"},"f":{"ha":467,"x_min":20,"x_max":530,"o":"m 450 743 l 450 655 l 264 655 l 264 0 l 152 0 l 152 655 l 20 655 l 20 709 l 152 747 l 152 796 q 180 948 152 890 q 260 1035 208 1007 q 389 1063 313 1063 l 389 1063 q 468 1055 432 1063 q 530 1038 503 1048 l 530 1038 l 501 949 q 449 963 478 957 q 391 970 420 970 l 391 970 q 295 928 326 970 q 264 798 264 886 l 264 798 l 264 743 l 450 743 z"},"g":{"ha":754,"x_min":21,"x_max":726,"o":"m 326 -334 l 326 -334 q 100 -279 180 -334 q 21 -126 21 -224 l 21 -126 q 65 -7 21 -56 q 189 59 110 43 l 189 59 q 139 100 159 73 q 118 162 118 127 l 118 162 q 141 234 118 203 q 210 293 163 264 l 210 293 q 116 373 152 317 q 79 505 79 430 l 79 505 q 113 642 79 585 q 209 728 146 699 q 361 758 272 758 l 361 758 q 401 756 381 758 q 439 752 421 755 q 471 745 458 749 l 471 745 l 726 745 l 726 672 l 589 655 q 623 591 610 629 q 637 509 637 554 l 637 509 q 562 332 637 397 q 355 267 486 267 l 355 267 q 291 272 323 267 l 291 272 q 240 231 258 254 q 223 180 223 209 l 223 180 q 236 145 223 158 q 275 126 250 132 q 335 121 300 121 l 335 121 l 466 121 q 652 70 587 121 q 717 -79 717 19 l 717 -79 q 616 -268 717 -202 q 326 -334 516 -334 z m 330 -245 l 330 -245 q 483 -227 422 -245 q 573 -173 543 -208 q 604 -90 604 -138 l 604 -90 q 583 -23 604 -45 q 524 8 563 0 q 427 16 484 16 l 427 16 l 298 16 q 211 0 248 16 q 154 -46 174 -16 q 134 -122 134 -77 l 134 -122 q 184 -214 134 -182 q 330 -245 235 -245 z m 359 349 l 359 349 q 480 389 439 349 q 521 508 521 430 l 521 508 q 479 633 521 591 q 357 675 438 675 l 357 675 q 238 632 280 675 q 197 506 197 589 l 197 506 q 239 389 197 430 q 359 349 281 349 z"},"h":{"ha":852,"x_min":119,"x_max":739,"o":"m 119 1055 l 231 1055 l 231 740 q 230 685 231 713 q 225 635 229 658 l 225 635 l 233 635 q 291 701 256 674 q 372 742 327 728 q 469 755 418 755 l 469 755 q 618 727 558 755 q 708 639 678 699 q 739 484 739 579 l 739 484 l 739 0 l 627 0 l 627 477 q 585 616 627 570 q 455 662 543 662 l 455 662 q 323 630 372 662 q 253 538 274 599 q 231 389 231 477 l 231 389 l 231 0 l 119 0 l 119 1055 z"},"i":{"ha":351,"x_min":109,"x_max":244,"o":"m 119 743 l 231 743 l 231 0 l 119 0 l 119 743 z m 176 1021 l 176 1021 q 224 1003 204 1021 q 244 947 244 985 l 244 947 q 224 892 244 910 q 176 873 204 873 l 176 873 q 128 892 147 873 q 109 947 109 910 l 109 947 q 128 1003 109 985 q 176 1021 147 1021 z"},"j":{"ha":351,"x_min":-76,"x_max":244,"o":"m 29 -334 l 29 -334 q -31 -329 -5 -334 q -76 -317 -57 -323 l -76 -317 l -76 -225 q -33 -236 -55 -232 q 16 -239 -12 -239 l 16 -239 q 90 -214 62 -239 q 119 -120 119 -188 l 119 -120 l 119 743 l 231 743 l 231 -117 q 210 -234 231 -185 q 143 -308 188 -282 q 29 -334 98 -334 z m 109 947 l 109 947 q 128 1003 109 985 q 176 1021 147 1021 l 176 1021 q 224 1003 204 1021 q 244 947 244 985 l 244 947 q 224 892 244 910 q 176 873 204 873 l 176 873 q 128 892 147 873 q 109 947 109 910 z"},"k":{"ha":730,"x_min":119,"x_max":719,"o":"m 119 1055 l 231 1055 l 231 507 q 229 441 231 480 q 225 372 227 402 l 225 372 l 230 372 q 272 425 244 390 q 318 480 299 459 l 318 480 l 565 743 l 697 743 l 398 426 l 719 0 l 583 0 l 321 352 l 231 269 l 231 0 l 119 0 l 119 1055 z"},"l":{"ha":351,"x_min":119,"x_max":232,"o":"m 232 1055 l 232 0 l 119 0 l 119 1055 l 232 1055 z"},"m":{"ha":1286,"x_min":119,"x_max":1173,"o":"m 926 757 l 926 757 q 1111 693 1048 757 q 1173 487 1173 629 l 1173 487 l 1173 0 l 1062 0 l 1062 481 q 1023 617 1062 572 q 907 662 984 662 l 907 662 q 751 600 800 662 q 702 416 702 537 l 702 416 l 702 0 l 590 0 l 590 481 q 573 582 590 542 q 521 642 555 622 q 435 662 487 662 l 435 662 q 316 631 361 662 q 251 541 271 601 q 231 393 231 481 l 231 393 l 231 0 l 119 0 l 119 743 l 210 743 l 227 638 l 233 638 q 289 703 255 677 q 365 743 323 730 q 454 757 407 757 l 454 757 q 596 725 539 757 q 680 629 654 694 l 680 629 l 686 629 q 786 725 722 694 q 926 757 850 757 z"},"n":{"ha":852,"x_min":119,"x_max":739,"o":"m 471 757 l 471 757 q 671 692 603 757 q 739 484 739 627 l 739 484 l 739 0 l 627 0 l 627 477 q 585 616 627 570 q 455 662 543 662 l 455 662 q 281 592 332 662 q 231 389 231 522 l 231 389 l 231 0 l 119 0 l 119 743 l 210 743 l 227 636 l 233 636 q 293 702 256 675 q 375 743 330 729 q 471 757 420 757 z"},"o":{"ha":836,"x_min":77,"x_max":760,"o":"m 760 373 l 760 373 q 736 210 760 281 q 667 88 712 138 q 559 13 623 39 q 416 -14 496 -14 l 416 -14 q 279 13 341 -14 q 172 88 217 39 q 102 210 127 138 q 77 373 77 281 l 77 373 q 119 581 77 495 q 237 712 160 667 q 420 757 314 757 l 420 757 q 598 711 522 757 q 717 580 675 666 q 760 373 760 494 z m 194 373 l 194 373 q 218 218 194 283 q 291 116 241 152 q 418 80 340 80 l 418 80 q 546 116 496 80 q 619 218 595 152 q 643 373 643 283 l 643 373 q 619 527 643 462 q 546 627 595 591 q 418 662 496 662 l 418 662 q 248 585 302 662 q 194 373 194 509 z"},"p":{"ha":850,"x_min":119,"x_max":772,"o":"m 468 757 l 468 757 q 690 661 607 757 q 772 374 772 566 l 772 374 q 734 161 772 247 q 628 31 696 75 q 465 -14 559 -14 l 465 -14 q 361 2 406 -14 q 285 44 317 18 q 232 102 253 71 l 232 102 l 224 102 q 229 38 226 75 q 232 -27 232 1 l 232 -27 l 232 -332 l 119 -332 l 119 743 l 212 743 l 227 633 l 232 633 q 285 695 254 667 q 361 740 316 724 q 468 757 406 757 z m 448 662 l 448 662 q 324 632 371 662 q 255 543 277 602 q 232 394 233 484 l 232 394 l 232 372 q 253 213 232 278 q 321 114 273 148 q 450 80 369 80 l 450 80 q 565 117 519 80 q 634 221 611 155 q 656 375 656 288 l 656 375 q 605 584 656 507 q 448 662 554 662 z"},"q":{"ha":850,"x_min":77,"x_max":730,"o":"m 730 -332 l 617 -332 l 617 -14 q 618 47 617 13 q 623 107 620 82 l 623 107 l 616 107 q 527 21 585 56 q 378 -14 469 -14 l 378 -14 q 159 83 242 -14 q 77 370 77 179 l 77 370 q 115 582 77 496 q 222 712 153 668 q 385 757 292 757 l 385 757 q 530 722 473 757 q 618 637 586 687 l 618 637 l 623 637 l 640 743 l 730 743 l 730 -332 z m 399 80 l 399 80 q 526 110 478 80 q 595 199 573 139 q 618 347 617 258 l 618 347 l 618 371 q 570 589 618 515 q 399 663 521 663 l 399 663 q 244 584 295 663 q 193 368 193 504 l 193 368 q 244 156 193 231 q 399 80 295 80 z"},"r":{"ha":568,"x_min":119,"x_max":547,"o":"m 456 757 l 456 757 q 503 754 479 757 q 547 748 528 752 l 547 748 l 532 644 q 492 651 514 648 q 450 654 469 654 l 450 654 q 365 636 405 654 q 296 584 326 618 q 249 504 266 551 q 232 399 232 456 l 232 399 l 232 0 l 119 0 l 119 743 l 212 743 l 224 606 l 229 606 q 285 682 252 648 q 360 736 317 716 q 456 757 404 757 z"},"s":{"ha":662,"x_min":70,"x_max":600,"o":"m 600 203 l 600 203 q 564 84 600 132 q 462 11 528 35 q 304 -14 396 -14 l 304 -14 q 170 -1 227 -14 q 70 33 113 11 l 70 33 l 70 137 q 178 96 115 115 q 307 78 241 78 l 307 78 q 447 109 404 78 q 490 194 490 140 l 490 194 q 473 248 490 224 q 415 293 456 271 q 302 342 374 315 l 302 342 q 179 396 231 369 q 99 461 127 422 q 71 562 71 500 l 71 562 q 148 706 71 656 q 348 757 224 757 l 348 757 q 474 744 415 757 q 583 708 532 730 l 583 708 l 545 618 q 447 651 499 637 q 340 665 395 665 l 340 665 q 221 639 262 665 q 179 568 179 613 l 179 568 q 198 511 179 534 q 260 469 218 489 q 373 423 303 450 l 373 423 q 494 370 443 397 q 572 303 545 342 q 600 203 600 264 z"},"t":{"ha":495,"x_min":22,"x_max":463,"o":"m 359 79 l 359 79 q 416 83 387 79 q 463 95 445 88 l 463 95 l 463 7 q 409 -7 444 -1 q 340 -14 374 -14 l 340 -14 q 233 7 281 -14 q 156 77 185 28 q 127 214 127 127 l 127 214 l 127 655 l 22 655 l 22 710 l 128 754 l 173 916 l 241 916 l 241 743 l 458 743 l 458 655 l 241 655 l 241 218 q 273 113 241 148 q 359 79 305 79 z"},"u":{"ha":852,"x_min":111,"x_max":732,"o":"m 619 743 l 732 743 l 732 0 l 640 0 l 624 104 l 618 104 q 558 39 595 66 q 476 0 522 13 q 378 -14 430 -14 l 378 -14 q 231 15 290 -14 q 141 103 171 43 q 111 256 111 163 l 111 256 l 111 743 l 224 743 l 224 264 q 267 126 224 172 q 395 80 309 80 l 395 80 q 527 111 477 80 q 597 203 576 142 q 619 352 619 264 l 619 352 l 619 743 z"},"v":{"ha":694,"x_min":0,"x_max":694,"o":"m 411 0 l 282 0 l 0 743 l 121 743 l 284 294 q 319 192 301 248 q 343 102 336 136 l 343 102 l 348 102 q 375 192 356 136 q 410 294 394 248 l 410 294 l 573 743 l 694 743 l 411 0 z"},"w":{"ha":1076,"x_min":16,"x_max":1060,"o":"m 854 1 l 724 1 l 591 434 q 575 489 583 462 q 561 540 567 515 q 549 586 554 565 q 541 623 544 608 l 541 623 l 536 623 q 528 586 533 608 q 517 540 524 565 q 503 487 511 515 q 486 432 496 460 l 486 432 l 348 1 l 221 1 l 16 745 l 133 745 l 240 334 q 261 254 251 294 q 278 179 271 214 q 288 119 285 144 l 288 119 l 294 119 q 303 159 298 136 q 314 210 308 183 q 328 263 321 237 q 343 314 336 290 l 343 314 l 480 745 l 602 745 l 734 315 q 754 247 744 282 q 772 179 764 212 q 783 120 780 146 l 783 120 l 789 120 q 799 177 791 143 q 816 252 806 211 q 837 334 826 292 l 837 334 l 945 745 l 1060 745 l 854 1 z"},"x":{"ha":727,"x_min":26,"x_max":701,"o":"m 26 0 l 296 380 l 39 743 l 168 743 l 363 457 l 559 743 l 686 743 l 429 380 l 701 0 l 572 0 l 363 303 l 154 0 l 26 0 z"},"y":{"ha":696,"x_min":1,"x_max":696,"o":"m 299 -1 l 1 743 l 122 743 l 286 312 q 313 239 300 274 q 334 172 325 204 q 349 111 344 140 l 349 111 l 354 111 q 381 200 363 144 q 419 313 399 255 l 419 313 l 574 743 l 696 743 l 372 -109 q 312 -229 347 -178 q 229 -307 278 -279 q 111 -334 180 -334 l 111 -334 q 55 -331 79 -334 q 13 -322 31 -327 l 13 -322 l 13 -232 q 49 -238 28 -235 q 94 -241 71 -241 l 94 -241 q 166 -225 136 -241 q 220 -178 197 -209 q 258 -106 242 -148 l 258 -106 l 299 -1 z"},"z":{"ha":651,"x_min":54,"x_max":596,"o":"m 596 87 l 596 0 l 54 0 l 54 75 l 462 655 l 80 655 l 80 743 l 587 743 l 587 660 l 185 87 l 596 87 z"}," ":{"ha":361,"x_min":0,"x_max":0,"o":""},".":{"ha":365,"x_min":102,"x_max":263,"o":"m 102 71 l 102 71 q 125 138 102 118 q 181 158 148 158 l 181 158 q 239 138 216 158 q 263 71 263 118 l 263 71 q 239 2 263 24 q 181 -19 216 -19 l 181 -19 q 125 2 148 -19 q 102 71 102 24 z"},",":{"ha":359,"x_min":56,"x_max":256,"o":"m 127 161 l 248 161 l 256 146 q 225 40 244 96 q 185 -73 207 -16 q 140 -179 163 -130 l 140 -179 l 56 -179 q 84 -65 71 -125 q 109 54 98 -5 q 127 161 120 113 l 127 161 z"},":":{"ha":365,"x_min":102,"x_max":263,"o":"m 102 71 l 102 71 q 125 138 102 118 q 181 158 148 158 l 181 158 q 239 138 216 158 q 263 71 263 118 l 263 71 q 239 2 263 24 q 181 -19 216 -19 l 181 -19 q 125 2 148 -19 q 102 71 102 24 z m 102 672 l 102 672 q 125 741 102 721 q 181 761 148 761 l 181 761 q 239 741 216 761 q 263 672 263 721 l 263 672 q 239 605 263 626 q 181 584 216 584 l 181 584 q 125 605 148 584 q 102 672 102 626 z"},";":{"ha":365,"x_min":44,"x_max":260,"o":"m 116 161 l 236 161 l 245 146 q 214 40 233 97 q 173 -73 195 -16 q 130 -179 151 -130 l 130 -179 l 44 -179 q 72 -65 58 -125 q 97 54 85 -5 q 116 161 109 113 l 116 161 z m 99 672 l 99 672 q 122 741 99 721 q 178 761 145 761 l 178 761 q 237 741 214 761 q 260 672 260 721 l 260 672 q 237 605 260 626 q 178 584 214 584 l 178 584 q 122 605 145 584 q 99 672 99 626 z"},"!":{"ha":367,"x_min":102,"x_max":263,"o":"m 252 991 l 220 275 l 146 275 l 115 991 l 252 991 z m 102 71 l 102 71 q 125 138 102 118 q 182 158 148 158 l 182 158 q 240 138 216 158 q 263 71 263 118 l 263 71 q 240 2 263 24 q 182 -19 216 -19 l 182 -19 q 125 2 148 -19 q 102 71 102 24 z"},"?":{"ha":600,"x_min":21,"x_max":562,"o":"m 286 275 l 195 275 l 195 311 q 205 404 195 365 q 241 477 216 443 q 312 549 267 511 l 312 549 q 396 624 365 593 q 440 686 427 654 q 454 761 454 717 l 454 761 q 408 869 454 831 q 280 907 363 907 l 280 907 q 161 890 213 907 q 60 849 109 873 l 60 849 l 21 940 q 142 987 77 969 q 287 1006 207 1006 l 287 1006 q 490 941 418 1006 q 562 763 562 876 l 562 763 q 541 655 562 700 q 484 574 521 611 q 395 496 446 537 l 395 496 q 327 429 351 458 q 294 370 303 400 q 286 298 286 340 l 286 298 l 286 275 z m 165 71 l 165 71 q 188 138 165 118 q 245 158 210 158 l 245 158 q 302 138 279 158 q 326 71 326 118 l 326 71 q 302 2 326 24 q 245 -19 279 -19 l 245 -19 q 188 2 210 -19 q 165 71 165 24 z"},"'":{"ha":304,"x_min":92,"x_max":214,"o":"m 92 991 l 214 991 l 188 633 l 117 633 l 92 991 z"},"\"":{"ha":553,"x_min":92,"x_max":462,"o":"m 92 991 l 214 991 l 188 633 l 117 633 l 92 991 z m 340 991 l 462 991 l 437 633 l 366 633 l 340 991 z"},"(":{"ha":410,"x_min":56,"x_max":368,"o":"m 56 380 l 56 380 q 78 604 56 495 q 145 810 100 712 q 260 991 191 909 l 260 991 l 368 991 q 220 705 269 863 q 170 382 170 548 l 170 382 q 192 168 170 273 q 258 -35 214 62 q 366 -220 302 -133 l 366 -220 l 260 -220 q 145 -42 191 -138 q 78 161 100 54 q 56 380 56 268 z"},")":{"ha":410,"x_min":42,"x_max":354,"o":"m 354 382 l 354 382 q 332 161 354 269 q 265 -43 310 54 q 150 -220 220 -139 l 150 -220 l 43 -220 q 152 -35 109 -134 q 218 169 196 63 q 240 382 240 274 l 240 382 q 218 600 240 493 q 152 806 195 707 q 42 991 108 905 l 42 991 l 150 991 q 265 810 220 908 q 332 604 310 712 q 354 382 354 496 z"},"[":{"ha":454,"x_min":113,"x_max":420,"o":"m 420 -126 l 420 -220 l 113 -220 l 113 991 l 420 991 l 420 899 l 222 899 l 222 -126 l 420 -126 z"},"]":{"ha":454,"x_min":35,"x_max":342,"o":"m 35 -220 l 35 -126 l 232 -126 l 232 899 l 35 899 l 35 991 l 342 991 l 342 -220 l 35 -220 z"},"{":{"ha":521,"x_min":39,"x_max":476,"o":"m 476 -126 l 476 -220 q 331 -195 392 -219 q 238 -123 271 -171 q 206 -2 206 -75 l 206 -2 l 206 205 q 187 283 206 254 q 131 326 168 313 q 39 340 94 340 l 39 340 l 39 433 q 131 447 94 434 q 187 490 168 460 q 206 567 206 519 l 206 567 l 206 776 q 240 896 206 848 q 335 968 274 944 q 476 991 395 991 l 476 991 l 476 899 q 390 884 426 898 q 336 840 355 869 q 317 765 317 811 l 317 765 l 317 561 q 281 448 317 490 q 171 391 245 405 l 171 391 l 171 383 q 282 328 247 370 q 317 214 317 285 l 317 214 l 317 5 q 336 -70 317 -41 q 390 -112 354 -98 q 476 -126 425 -125 l 476 -126 z"},"}":{"ha":521,"x_min":45,"x_max":483,"o":"m 45 -220 l 45 -220 l 45 -126 q 131 -111 96 -125 q 185 -68 166 -97 q 203 7 203 -39 l 203 7 l 203 212 q 240 326 203 283 q 350 382 276 369 l 350 382 l 350 390 q 239 446 275 404 q 203 559 203 489 l 203 559 l 203 766 q 185 842 203 812 q 132 885 167 871 q 45 899 96 899 l 45 899 l 45 991 q 190 967 130 991 q 282 896 250 943 q 315 774 315 848 l 315 774 l 315 568 q 334 490 315 519 q 390 447 353 460 q 483 433 428 433 l 483 433 l 483 340 q 390 326 428 340 q 334 283 353 313 q 315 207 315 254 l 315 207 l 315 -3 q 281 -123 315 -75 q 186 -196 247 -172 q 45 -220 126 -220 z"},"%":{"ha":1148,"x_min":69,"x_max":1079,"o":"m 271 1006 l 271 1006 q 425 925 372 1006 q 477 696 477 844 l 477 696 q 427 466 477 548 q 271 383 376 383 l 271 383 q 121 466 173 383 q 69 696 69 548 l 69 696 q 119 925 69 844 q 271 1006 168 1006 z m 271 925 l 271 925 q 190 868 216 925 q 164 696 164 810 l 164 696 q 190 523 164 581 q 271 465 216 465 l 271 465 q 355 523 328 465 q 383 696 383 581 l 383 696 q 356 867 383 810 q 271 925 328 925 z m 800 991 l 899 991 l 349 0 l 250 0 l 800 991 z m 872 608 l 872 608 q 1026 527 973 608 q 1079 298 1079 446 l 1079 298 q 1028 69 1079 151 q 872 -14 977 -14 l 872 -14 q 722 69 774 -14 q 671 298 671 151 l 671 298 q 720 527 671 446 q 872 608 769 608 z m 872 527 l 872 527 q 791 470 817 527 q 766 298 766 413 l 766 298 q 791 126 766 184 q 872 68 817 68 l 872 68 q 957 125 929 68 q 985 298 985 182 l 985 298 q 957 470 985 412 q 872 527 930 527 z"},"-":{"ha":447,"x_min":56,"x_max":392,"o":"m 392 323 l 56 323 l 56 423 l 392 423 l 392 323 z"},"+":{"ha":794,"x_min":70,"x_max":722,"o":"m 442 825 l 442 536 l 722 536 l 722 444 l 442 444 l 442 156 l 349 156 l 349 444 l 70 444 l 70 536 l 349 536 l 349 825 l 442 825 z"},"/":{"ha":509,"x_min":14,"x_max":494,"o":"m 384 991 l 494 991 l 125 0 l 14 0 l 384 991 z"},"&":{"ha":1012,"x_min":75,"x_max":1004,"o":"m 422 1007 l 422 1007 q 549 982 496 1007 q 631 909 602 956 q 660 794 660 861 l 660 794 q 603 645 660 706 q 457 534 545 584 l 457 534 l 732 267 q 793 367 770 310 q 833 492 817 425 l 833 492 l 947 492 q 891 327 926 402 q 806 195 857 252 l 806 195 l 1004 0 l 852 0 l 729 120 q 636 50 686 80 q 525 3 586 20 q 387 -14 465 -14 l 387 -14 q 222 18 292 -14 q 114 109 152 49 q 75 257 75 170 l 75 257 q 102 380 75 329 q 177 472 128 432 q 294 550 226 512 l 294 550 q 233 622 262 585 q 187 700 205 658 q 170 791 170 741 l 170 791 q 200 907 170 859 q 288 981 231 956 q 422 1007 345 1007 z m 657 191 l 361 479 q 271 418 309 448 q 213 351 233 389 q 193 261 193 314 l 193 261 q 247 134 193 182 q 390 86 300 86 l 390 86 q 547 117 482 86 q 657 191 612 147 l 657 191 z m 418 914 l 418 914 q 318 882 357 914 q 280 792 280 850 l 280 792 q 308 697 280 741 q 387 601 336 654 l 387 601 q 510 691 472 648 q 549 794 549 735 l 549 794 q 513 881 549 848 q 418 914 477 914 z"},"@":{"ha":1245,"x_min":80,"x_max":1166,"o":"m 1166 495 l 1166 495 q 1151 369 1166 431 q 1107 259 1137 308 q 1033 180 1077 210 q 928 151 988 151 l 928 151 q 827 188 865 151 q 783 275 790 224 l 783 275 l 777 275 q 701 186 751 221 q 578 151 651 151 l 578 151 q 415 221 473 151 q 358 408 358 292 l 358 408 q 394 569 358 499 q 497 680 431 640 q 653 720 563 720 l 653 720 q 770 710 713 720 q 861 688 827 700 l 861 688 l 848 414 q 846 376 847 389 q 846 355 846 363 l 846 355 q 872 257 846 282 q 935 231 898 231 l 935 231 q 1011 267 981 231 q 1059 362 1042 302 q 1075 496 1075 422 l 1075 496 q 1023 717 1075 625 q 879 857 970 808 q 667 905 787 905 l 667 905 q 457 867 549 905 q 301 762 365 830 q 205 600 238 694 q 173 393 173 507 l 173 393 q 222 158 173 255 q 367 11 271 61 q 599 -40 462 -40 l 599 -40 q 758 -22 682 -40 q 895 20 835 -3 l 895 20 l 895 -68 q 762 -110 836 -94 q 599 -125 688 -125 l 599 -125 q 319 -64 435 -125 q 142 113 203 -3 q 80 389 80 228 l 80 389 q 120 630 80 520 q 237 821 161 740 q 422 946 313 901 q 667 990 531 990 l 667 990 q 925 930 813 990 q 1102 759 1038 870 q 1166 495 1166 648 z m 459 406 l 459 406 q 495 273 459 315 q 595 231 531 231 l 595 231 q 710 290 673 231 q 753 446 747 349 l 753 446 l 761 623 q 713 634 741 629 q 654 638 685 638 l 654 638 q 542 605 585 638 q 479 519 498 572 q 459 406 459 466 z"},"#":{"ha":897,"x_min":35,"x_max":861,"o":"m 861 610 l 665 610 l 621 379 l 812 379 l 812 293 l 604 293 l 546 0 l 454 0 l 512 293 l 305 293 l 250 0 l 159 0 l 213 293 l 35 293 l 35 379 l 230 379 l 275 610 l 87 610 l 87 694 l 291 694 l 347 991 l 440 991 l 384 694 l 592 694 l 648 991 l 738 991 l 682 694 l 861 694 l 861 610 z m 366 610 l 321 379 l 528 379 l 573 610 l 366 610 z"}}}
